<svg id="로고_B" xmlns="http://www.w3.org/2000/svg" xmlns:xlink="http://www.w3.org/1999/xlink" width="222.21" height="40" viewBox="0 0 222.21 40">
  <defs>
    <clipPath id="clip-path">
      <rect id="Rectangle_47" data-name="Rectangle 47" width="222.21" height="40" transform="translate(0 0)"/>
    </clipPath>
  </defs>
  <g id="Group_3" data-name="Group 3" transform="translate(0 0)" clip-path="url(#clip-path)">
    <path id="Path_24" data-name="Path 24" d="M70.265,0H.3A.3.3,0,0,0,0,.3V39.7a.3.3,0,0,0,.3.3H70.265c14.333,0,20.8-8.934,20.8-19.933S84.6,0,70.265,0" transform="translate(0 0)"/>
    <path id="Path_25" data-name="Path 25" d="M171.332,0h-39.4a.3.3,0,0,0-.3.3V39.7a.3.3,0,0,0,.3.3H133.1A38.534,38.534,0,0,0,171.631,1.465V.3a.3.3,0,0,0-.3-.3" transform="translate(-34.781 0)"/>
    <path id="Path_26" data-name="Path 26" d="M267.928,0h-15.9a.3.3,0,0,0-.3.3V39.7a.3.3,0,0,0,.3.3h6.7a.3.3,0,0,0,.3-.3V33.582h8.9c14.333,0,20.8-7.5,20.8-16.735S282.261,0,267.928,0" transform="translate(-66.515 0)"/>
    <path id="Path_27" data-name="Path 27" d="M215.276,14.533a5.287,5.287,0,1,0,5.287,5.286,5.287,5.287,0,0,0-5.287-5.286" transform="translate(-55.486 -3.84)"/>
    <path id="Path_28" data-name="Path 28" d="M209.737,0a20,20,0,1,0,20,20,20,20,0,0,0-20-20m.434,35.252a.3.3,0,0,1-.494,0c-1.5-2.282-9.347-14.429-9.347-19.22a9.594,9.594,0,1,1,19.189,0c0,4.791-7.845,16.938-9.347,19.22" transform="translate(-50.135 0)"/>
  </g>
</svg>
