<svg xmlns="http://www.w3.org/2000/svg" xmlns:xlink="http://www.w3.org/1999/xlink" width="20" height="20" viewBox="0 0 20 20">
  <defs>
    <clipPath id="clip-path">
      <rect x="-3" width="20" height="20" fill="none"/>
    </clipPath>
    <clipPath id="clip-path-2">
      <rect id="사각형_67" data-name="사각형 67" width="20" height="20" transform="translate(-3)" fill="#969696"/>
    </clipPath>
  </defs>
  <g id="핀_아이콘_web" data-name="핀 아이콘_web" transform="translate(3)" clip-path="url(#clip-path)" style="mix-blend-mode: normal;isolation: isolate">
    <g id="지도핀_아이콘" data-name="지도핀 아이콘" clip-path="url(#clip-path-2)">
      <path id="패스_36" data-name="패스 36" d="M6.5,0A6.565,6.565,0,0,0,0,6.629c0,3.31,5.315,11.7,6.333,13.279a.2.2,0,0,0,.335,0C7.685,18.331,13,9.939,13,6.629A6.565,6.565,0,0,0,6.5,0m0,10.245A3.618,3.618,0,0,1,2.919,6.592,3.618,3.618,0,0,1,6.5,2.94a3.618,3.618,0,0,1,3.581,3.653A3.618,3.618,0,0,1,6.5,10.245" transform="translate(1 0)" fill="#c8d94d"/>
    </g>
  </g>
</svg>
