<svg xmlns="http://www.w3.org/2000/svg" xmlns:xlink="http://www.w3.org/1999/xlink" width="20" height="20" viewBox="0 0 20 20">
  <defs>
    <clipPath id="clip-path">
      <rect width="20" height="20" fill="none"/>
    </clipPath>
    <clipPath id="clip-path-2">
      <rect id="사각형_66" data-name="사각형 66" width="20" height="20" transform="translate(-1)" fill="#969696"/>
    </clipPath>
  </defs>
  <g id="설정_아이콘_web" data-name="설정 아이콘_web" clip-path="url(#clip-path)" style="mix-blend-mode: normal;isolation: isolate">
    <g id="설정_아이콘" data-name="설정 아이콘" transform="translate(1)" clip-path="url(#clip-path-2)">
      <path id="패스_35" data-name="패스 35" d="M18.462,7.95a1.158,1.158,0,0,0,.349-1.595L17.489,4.289a1.13,1.13,0,0,0-1.575-.352l-1.225.786a7.389,7.389,0,0,0-2.555-1.475l-.015-1.6A1.143,1.143,0,0,0,10.975.5L8.531.522A1.151,1.151,0,0,0,7.388,1.683L7.4,3.255a7.385,7.385,0,0,0-2.555,1.5L3.555,3.929a1.114,1.114,0,0,0-1.567.36L.68,6.37a1.146,1.146,0,0,0,.357,1.587l1.448.921a7.518,7.518,0,0,0-.141,1.49,8.107,8.107,0,0,0,.186,1.707l-1.285.831A1.157,1.157,0,0,0,.9,14.494l1.322,2.082a1.136,1.136,0,0,0,1.582.344l1.218-.786a7.486,7.486,0,0,0,2.511,1.378l.007,1.5a1.16,1.16,0,0,0,1.159,1.145l2.436-.022a1.16,1.16,0,0,0,1.137-1.168l-.015-1.52a7.139,7.139,0,0,0,1.991-1.078l1.337.854a1.137,1.137,0,0,0,1.575-.359l1.307-2.082a1.156,1.156,0,0,0-.356-1.587l-1.181-.756a7.618,7.618,0,0,0,.141-3.579V8.849ZM9.75,14.524a4.2,4.2,0,1,1,4.16-4.2A4.182,4.182,0,0,1,9.75,14.524Z" transform="translate(-0.746 -0.328)" fill="#969696"/>
    </g>
  </g>
</svg>
