<svg id="그룹_452" data-name="그룹 452" xmlns="http://www.w3.org/2000/svg" xmlns:xlink="http://www.w3.org/1999/xlink" width="40" height="40" viewBox="0 0 40 40">
  <defs>
    <clipPath id="clip-path">
      <rect id="사각형_114" data-name="사각형 114" width="40" height="40" fill="#fff"/>
    </clipPath>
  </defs>
  <g id="그룹_26" data-name="그룹 26" transform="translate(0 0)" clip-path="url(#clip-path)">
    <path id="패스_63" data-name="패스 63" d="M18.142,9.024c0,4.947-2.9,8.965-9.336,8.965H.173A.173.173,0,0,1,0,17.816V.173A.173.173,0,0,1,.173,0H8.807c6.434,0,9.336,4.077,9.336,9.024" transform="translate(0 0)" fill="#fff"/>
    <path id="패스_64" data-name="패스 64" d="M64.363,18.018h-.483a.173.173,0,0,1-.173-.173V.268a.173.173,0,0,1,.173-.173H81.426A.173.173,0,0,1,81.6.268V.751A17.251,17.251,0,0,1,64.363,18.018" transform="translate(-41.713 -0.062)" fill="#fff"/>
    <path id="패스_65" data-name="패스 65" d="M9.572,63.373a8.983,8.983,0,1,0,8.967,8.983,8.975,8.975,0,0,0-8.967-8.983m.185,15.118a.121.121,0,0,1-.2,0c-.608-.926-3.757-5.811-3.757-7.74a3.858,3.858,0,1,1,7.716,0c0,1.929-3.149,6.814-3.757,7.74" transform="translate(-0.396 -41.454)" fill="#fff"/>
    <path id="패스_66" data-name="패스 66" d="M22.789,78.485a2.13,2.13,0,1,0,2.126,2.13,2.128,2.128,0,0,0-2.126-2.13" transform="translate(-13.529 -51.339)" fill="#fff"/>
    <path id="패스_67" data-name="패스 67" d="M71.541,63.184H63.88a.173.173,0,0,0-.173.173v17.61a.173.173,0,0,0,.173.173H66.81a.173.173,0,0,0,.173-.173V78.259h4.558c6.931,0,10.056-3.367,10.056-7.512s-3.126-7.563-10.056-7.563" transform="translate(-41.712 -41.33)" fill="#fff"/>
  </g>
</svg>
